<svg width="680" height="720" viewBox="0 0 680 720" fill="none" xmlns="http://www.w3.org/2000/svg">
<rect width="680" height="720" fill="white"/>
<path d="M338.57 351.461C353.813 351.461 366.17 339.104 366.17 323.861C366.17 308.618 353.813 296.261 338.57 296.261C323.327 296.261 310.97 308.618 310.97 323.861C310.97 339.104 323.327 351.461 338.57 351.461Z" fill="black"/>
<path d="M469.62 395.671C468.95 395.371 468.26 395.091 467.62 394.861V338.521C468.31 338.291 469 338.011 469.62 337.711C474.695 335.432 478.835 331.481 481.347 326.517C483.858 321.553 484.59 315.877 483.419 310.438C482.248 305 479.246 300.128 474.914 296.637C470.582 293.146 465.183 291.248 459.62 291.261C456.424 291.255 453.258 291.887 450.31 293.121C449.69 293.381 449.08 293.661 448.49 293.971L360.73 205.451C361.05 204.871 361.33 204.271 361.59 203.671C363.184 199.972 363.834 195.936 363.482 191.925C363.13 187.913 361.787 184.052 359.573 180.687C357.36 177.323 354.345 174.562 350.801 172.651C347.256 170.74 343.292 169.739 339.265 169.739C335.238 169.739 331.274 170.74 327.729 172.651C324.184 174.562 321.17 177.323 318.956 180.687C316.743 184.052 315.4 187.913 315.048 191.925C314.696 195.936 315.346 199.972 316.94 203.671C317.2 204.281 317.49 204.871 317.8 205.461L229.51 294.461C229.02 294.171 228.51 293.911 227.99 293.661C225.022 292.245 221.798 291.446 218.513 291.314C215.227 291.181 211.949 291.717 208.877 292.89C205.805 294.062 203.003 295.846 200.642 298.134C198.28 300.421 196.407 303.165 195.138 306.198C193.868 309.231 193.227 312.49 193.255 315.778C193.283 319.066 193.978 322.314 195.298 325.325C196.619 328.337 198.537 331.048 200.937 333.296C203.337 335.543 206.169 337.28 209.26 338.401C209.82 338.601 210.38 338.781 210.95 338.941V394.441C210.38 394.601 209.82 394.781 209.26 394.981C205.535 396.323 202.194 398.555 199.529 401.484C196.864 404.412 194.955 407.948 193.969 411.782C192.982 415.617 192.949 419.635 193.87 423.486C194.792 427.337 196.641 430.904 199.256 433.877C201.871 436.85 205.174 439.138 208.876 440.543C212.578 441.948 216.567 442.426 220.497 441.936C224.426 441.447 228.176 440.004 231.42 437.734C234.664 435.463 237.304 432.434 239.11 428.911C239.49 428.161 239.84 427.401 240.11 426.631H316.59C316.9 427.401 317.24 428.161 317.59 428.911C320.224 434.047 324.601 438.078 329.937 440.281C335.273 442.484 341.219 442.716 346.71 440.935C352.201 439.154 356.878 435.476 359.905 430.56C362.931 425.644 364.108 419.811 363.226 414.107C362.344 408.402 359.459 403.197 355.089 399.425C350.719 395.653 345.149 393.56 339.377 393.521C333.604 393.482 328.006 395.499 323.585 399.211C319.165 402.923 316.21 408.088 315.25 413.781C315.2 414.061 315.16 414.341 315.12 414.611H241.56C241.56 414.341 241.48 414.061 241.43 413.781C240.662 409.301 238.66 405.125 235.648 401.723C232.635 398.32 228.733 395.826 224.38 394.521C223.91 394.381 223.44 394.261 222.96 394.151V339.231C223.44 339.121 223.91 339.001 224.38 338.861C227.838 337.839 231.025 336.06 233.71 333.653C236.395 331.245 238.51 328.271 239.902 324.945C241.295 321.618 241.929 318.024 241.759 314.422C241.589 310.82 240.619 307.301 238.92 304.121C238.68 303.671 238.43 303.241 238.15 302.811L325.9 214.351C326.25 214.591 326.61 214.821 326.98 215.031C330.699 217.224 334.937 218.381 339.255 218.381C343.572 218.381 347.811 217.224 351.53 215.031C351.89 214.821 352.25 214.591 352.6 214.351L439.6 301.991C439.36 302.331 439.13 302.681 438.92 302.991C436.918 306.296 435.734 310.031 435.468 313.886C435.201 317.741 435.86 321.604 437.388 325.153C438.916 328.702 441.269 331.835 444.253 334.29C447.236 336.746 450.763 338.453 454.54 339.271C454.89 339.351 455.25 339.411 455.6 339.471V393.851C455.25 393.851 454.89 393.971 454.54 394.051C448.889 395.275 443.859 398.473 440.352 403.071C436.846 407.669 435.092 413.366 435.407 419.14C435.721 424.914 438.082 430.387 442.066 434.577C446.051 438.768 451.398 441.401 457.149 442.006C462.9 442.61 468.678 441.146 473.446 437.875C478.215 434.605 481.662 429.742 483.17 424.159C484.677 418.577 484.146 412.64 481.672 407.414C479.198 402.187 474.943 398.013 469.67 395.641L469.62 395.671ZM325.17 415.441C325.804 411.93 327.768 408.8 330.654 406.703C333.54 404.607 337.124 403.705 340.658 404.186C344.192 404.668 347.404 406.495 349.624 409.288C351.844 412.08 352.899 415.622 352.571 419.174C352.243 422.726 350.556 426.014 347.862 428.352C345.168 430.69 341.675 431.898 338.113 431.723C334.55 431.549 331.192 430.005 328.74 427.415C326.287 424.825 324.929 421.388 324.95 417.821C324.961 417.023 325.034 416.227 325.17 415.441ZM231.57 415.441C232.118 418.477 231.636 421.61 230.2 424.341C228.652 427.368 226.076 429.744 222.935 431.045C219.794 432.346 216.292 432.486 213.057 431.44C209.822 430.394 207.065 428.23 205.28 425.336C203.495 422.442 202.799 419.007 203.316 415.647C203.834 412.287 205.53 409.22 208.103 406.997C210.675 404.774 213.955 403.539 217.355 403.514C220.755 403.49 224.053 404.676 226.657 406.861C229.262 409.047 231.004 412.088 231.57 415.441ZM221.57 329.271C218.652 330.142 215.53 330.047 212.67 329.001C209.501 327.863 206.835 325.643 205.143 322.732C203.451 319.821 202.841 316.406 203.421 313.089C204 309.773 205.733 306.767 208.312 304.603C210.892 302.439 214.153 301.255 217.52 301.261C219.654 301.263 221.76 301.748 223.68 302.681C226.427 303.996 228.685 306.149 230.13 308.831C231.245 310.898 231.826 313.211 231.82 315.561C231.806 318.647 230.798 321.646 228.947 324.116C227.096 326.585 224.498 328.392 221.54 329.271H221.57ZM352.39 199.721C351.282 202.284 349.447 204.467 347.113 206.001C344.779 207.535 342.048 208.352 339.255 208.352C336.462 208.352 333.73 207.535 331.396 206.001C329.062 204.467 327.228 202.284 326.12 199.721C325.282 197.769 324.889 195.655 324.97 193.533C325.051 191.41 325.604 189.333 326.589 187.451C327.573 185.569 328.965 183.929 330.662 182.652C332.359 181.375 334.319 180.492 336.401 180.068C338.482 179.643 340.631 179.687 342.693 180.197C344.755 180.707 346.677 181.67 348.32 183.016C349.964 184.361 351.286 186.056 352.193 187.977C353.099 189.898 353.566 191.997 353.56 194.121C353.556 196.048 353.158 197.953 352.39 199.721ZM445.39 315.561C445.392 312.961 446.108 310.411 447.46 308.191C449.067 305.509 451.509 303.428 454.413 302.268C457.316 301.108 460.52 300.933 463.532 301.77C466.545 302.607 469.199 304.409 471.088 306.901C472.977 309.392 473.997 312.434 473.99 315.561C473.99 319.353 472.483 322.99 469.802 325.672C467.12 328.354 463.483 329.861 459.69 329.861C455.897 329.861 452.26 328.354 449.578 325.672C446.897 322.99 445.39 319.353 445.39 315.561ZM459.66 432.121C456.138 432.107 452.745 430.795 450.131 428.434C447.516 426.074 445.865 422.832 445.494 419.33C445.122 415.827 446.056 412.311 448.116 409.455C450.177 406.598 453.219 404.603 456.66 403.851C457.646 403.637 458.651 403.526 459.66 403.521C461.678 403.518 463.672 403.947 465.51 404.781C468.491 406.123 470.923 408.446 472.4 411.363C473.876 414.28 474.308 417.615 473.624 420.813C472.94 424.01 471.181 426.876 468.64 428.934C466.099 430.991 462.93 432.116 459.66 432.121Z" fill="black"/>
<path d="M228.314 532.261L225.787 525.884H208.521L206.055 532.261H193L210.807 490.149H223.561L241.369 532.261H228.314ZM212.732 515.175H221.576L217.184 503.925L212.732 515.175ZM330.548 490.149V532.261H317.794V516.559H300.889V532.261H288.135V490.149H300.889V505.249H317.794V490.149H330.548ZM370.52 490.149C371.723 490.149 372.886 490.389 374.009 490.871C375.132 491.352 376.115 492.014 376.957 492.856C377.799 493.658 378.461 494.621 378.942 495.744C379.464 496.826 379.724 498.01 379.724 499.293V523.116C379.724 524.32 379.484 525.483 379.003 526.606C378.521 527.689 377.859 528.651 377.017 529.493C376.215 530.336 375.253 531.017 374.13 531.539C373.007 532.02 371.803 532.261 370.52 532.261H346.035C344.832 532.261 343.669 532.02 342.546 531.539C341.463 531.058 340.5 530.416 339.658 529.614C338.816 528.771 338.134 527.809 337.612 526.726C337.131 525.603 336.891 524.4 336.891 523.116V499.293C336.891 498.09 337.131 496.947 337.612 495.864C338.094 494.741 338.735 493.758 339.538 492.916C340.38 492.074 341.342 491.412 342.425 490.931C343.548 490.409 344.751 490.149 346.035 490.149H370.52ZM366.971 504.106C366.971 503.384 366.71 502.762 366.188 502.241C365.667 501.72 365.045 501.459 364.323 501.459H352.231C351.549 501.459 350.948 501.72 350.427 502.241C349.905 502.762 349.644 503.384 349.644 504.106V518.304C349.644 519.026 349.905 519.647 350.427 520.169C350.948 520.69 351.549 520.951 352.231 520.951H364.323C365.045 520.951 365.667 520.69 366.188 520.169C366.71 519.647 366.971 519.026 366.971 518.304V504.106ZM440.457 490.149V532.261H427.703V507.715L420.123 525.403H407.369L398.766 507.715V532.261H386.013V490.149H402.376L413.746 513.491L424.094 490.149H440.457ZM483.992 532.261H447.054V490.149H483.992V501.459H459.808V505.189H479.36V516.559H459.808V520.951H483.992V532.261Z" fill="black"/>
<path d="M257.414 490.149V532.261H244.66V490.149H257.414Z" fill="#FF5C00"/>
</svg>
